<svg xmlns:mydata="http://www.w3.org/2000/svg" mydata:contrastcolor="ffffff" mydata:template="Default" mydata:presentation="2.5" mydata:layouttype="undefined" mydata:specialfontid="undefined" mydata:id1="769" mydata:id2="769" mydata:companyname="Picker Pro" mydata:companytagline="" version="1.1" xmlns="http://www.w3.org/2000/svg" xmlns:xlink="http://www.w3.org/1999/xlink" viewBox="0 0 550 470"><g fill="#e03e52" fill-rule="evenodd" stroke="none" stroke-width="1" stroke-linecap="butt" stroke-linejoin="miter" stroke-miterlimit="10" stroke-dasharray="" stroke-dashoffset="0" font-family="none" font-weight="none" font-size="none" text-anchor="none" style="mix-blend-mode: normal"><g data-paper-data="{&quot;isGlobalGroup&quot;:true,&quot;bounds&quot;:{&quot;x&quot;:106.26438350049106,&quot;y&quot;:106,&quot;width&quot;:337.47123299901784,&quot;height&quot;:258}}"><g data-paper-data="{&quot;isContainerElementsWrapper&quot;:true}"><path d="M106.26438,359.20104c0,2.65095 2.1484,4.79896 4.79935,4.79896h327.87292c2.65095,0 4.79896,-2.14802 4.79896,-4.79896v-248.40207c0,-2.65095 -2.14802,-4.79896 -4.79896,-4.79896h-327.87292c-2.65095,0 -4.79935,2.14802 -4.79935,4.79896zM290.49893,154.37452c0.0192,0 0.03647,0.01056 0.04607,0.02687c0.0096,0.01728 0.00864,0.03839 -0.00096,0.05375l-21.18167,34.25309c-0.0096,0.01632 -0.02687,0.02495 -0.04511,0.02495c-0.00384,0 -0.0096,-0.00096 -0.0144,-0.00192c-0.02208,-0.00672 -0.03839,-0.02687 -0.03839,-0.05087v-34.25309c0,-0.02879 0.02399,-0.05279 0.05279,-0.05279zM213.80284,205.09093h-10.11814c-0.02879,0 -0.05279,-0.02304 -0.05279,-0.05279v-50.61084c0,-0.02879 0.02399,-0.05279 0.05279,-0.05279h10.11814c0.02975,0 0.05279,0.02399 0.05279,0.05279v50.61084c0,0.02975 -0.02304,0.05279 -0.05279,0.05279zM345.64479,164.55024c0,0.02879 -0.02399,0.05279 -0.05279,0.05279h-33.02455v10.0164h22.90642c0.02879,0 0.05279,0.02304 0.05279,0.05279v10.12198c0,0.02879 -0.02399,0.05279 -0.05279,0.05279h-22.90642v10.0164h33.02455c0.02975,0 0.05279,0.02399 0.05279,0.05279v10.12198c0,0.02879 -0.02304,0.05279 -0.05279,0.05279h-43.19932c-0.01728,0 -0.03071,-0.0096 -0.04031,-0.02208c-0.00096,-0.00192 -0.00384,-0.00096 -0.0048,-0.00288l-15.64846,-25.30302c-0.01056,-0.01728 -0.01056,-0.03839 0,-0.05567l15.64846,-25.30782c0.00096,-0.00192 0.00384,-0.00288 0.00576,-0.0048c0.00192,-0.00288 0.00576,-0.0048 0.00864,-0.00768c0.00768,-0.0048 0.0144,-0.00768 0.02304,-0.0096c0.00288,0 0.0048,-0.00288 0.00768,-0.00288h43.19932c0.02879,0 0.05279,0.02399 0.05279,0.05279zM178.12926,154.37644c10.92532,0 19.81396,8.88864 19.81396,19.81492c0,6.67728 -3.3276,12.8593 -8.90112,16.53723c-2.94177,1.9503 -6.37015,3.07518 -9.9137,3.25178c-0.32921,0.01728 -0.66514,0.02495 -0.99914,0.02495h-13.26434v11.03474c0,0.02879 -0.02399,0.05279 -0.05279,0.05279h-10.12006c-0.02879,0 -0.05279,-0.02399 -0.05279,-0.05279v-50.61084c0,-0.02975 0.02399,-0.05279 0.05279,-0.05279zM352.11091,205.09285h10.1191c0.02975,0 0.05279,-0.02399 0.05279,-0.05279v-11.03474h13.26434c0.32345,0 0.64882,-0.00864 0.96747,-0.02399l6.8558,11.08657c0.00864,0.01536 0.02591,0.02495 0.04415,0.02495h11.89375c0.0192,0 0.03647,-0.01056 0.04607,-0.02687c0.00864,-0.01728 0.00864,-0.03743 -0.00096,-0.05375l-8.85121,-14.31435c5.5476,-3.68081 8.85889,-9.84651 8.85889,-16.50652c0,-10.92628 -8.8896,-19.81492 -19.81492,-19.81492h-23.43622c-0.02975,0 -0.05279,0.02304 -0.05279,0.05279v50.61084c0.00096,0.02879 0.02399,0.05279 0.05375,0.05279zM245.63053,205.07942c6.49396,0 12.98792,-2.47147 17.93085,-7.41536c0.02112,-0.02016 0.02112,-0.05375 0,-0.07486l-7.15718,-7.15718c-0.0192,-0.02016 -0.05375,-0.02016 -0.07486,0c-5.89889,5.89889 -15.49874,5.89889 -21.39762,0c-2.85826,-2.85826 -4.43136,-6.65712 -4.43136,-10.69881c0,-4.04169 1.57406,-7.84151 4.43136,-10.69881c5.89889,-5.89985 15.49874,-5.89985 21.39762,0c0.02112,0.0192 0.05567,0.0192 0.07486,0l7.15718,-7.15814c0.02112,-0.02112 0.02112,-0.05375 0,-0.07486c-9.88683,-9.88683 -25.97487,-9.88683 -35.8617,0c-4.78937,4.78937 -7.42688,11.15759 -7.42688,17.93085c0,6.77422 2.63751,13.14244 7.42688,17.93181c4.94389,4.94389 11.43689,7.41536 17.93085,7.41536zM178.12926,164.60111h-13.26434v19.17954h13.26434c2.00117,0 3.91308,-0.60659 5.52745,-1.75546c2.54345,-1.79577 4.06184,-4.72506 4.06184,-7.83383c0,-5.2875 -4.30179,-9.59025 -9.58929,-9.59025zM381.07458,182.02519c-1.61437,1.14887 -3.52628,1.75546 -5.52745,1.75546h-13.26434v-19.17954h13.26434c5.2875,0 9.58929,4.30275 9.58929,9.59025c0,3.10973 -1.51839,6.03806 -4.06184,7.83383zM280.75223,189.32442c0.0192,-0.03071 0.07102,-0.03071 0.09022,0l9.70159,15.68685c0.0096,0.01632 0.01056,0.03647 0.00096,0.05279c-0.0096,0.01728 -0.02687,0.02687 -0.04607,0.02687h-19.40317c-0.0192,0 -0.03647,-0.0096 -0.04607,-0.02687c-0.0096,-0.01632 -0.00864,-0.03647 0.00096,-0.05279zM349.39662,223.68308h-0.00672l-0.00192,-0.00096h-45.87618c-0.00384,0 -0.00576,0.00384 -0.0096,0.00384h-35.81467c-0.05279,0 -0.09598,0.04319 -0.09598,0.09598c0,0.05279 0.04319,0.09598 0.09598,0.09598c19.70071,0 35.72829,16.02758 35.72829,35.72829v10.04807c0,0.00864 0.00672,0.01536 0.00864,0.02304c0.01632,25.33469 20.63267,45.9424 45.97216,45.9424c25.34429,0 45.96448,-20.62307 45.96448,-45.97216c0,-25.34429 -20.62019,-45.96448 -45.96448,-45.96448zM197.21954,223.68884c19.80629,0 35.92025,16.113 35.92025,35.91929c0,12.10395 -6.0323,23.31049 -16.137,29.97817c-5.33261,3.53588 -11.54727,5.57544 -17.97116,5.89505c-0.59603,0.03071 -1.2055,0.04607 -1.81209,0.04607h-24.04377v20.00208c0,0.05279 -0.04319,0.09598 -0.09598,0.09598h-18.34452c-0.05279,0 -0.09598,-0.04319 -0.09598,-0.09598v-91.74564c0,-0.05279 0.04319,-0.09502 0.09598,-0.09502zM267.68753,242.03048h-24.13975c-0.05279,0 -0.09598,0.04319 -0.09598,0.09598v34.95854c0,0.05279 0.04319,0.09598 0.09598,0.09598h24.13975c3.66929,0 7.17253,-1.1124 10.13061,-3.21723c4.66171,-3.29209 7.44415,-8.65925 7.44415,-14.35754c0,-9.69103 -7.88374,-17.57573 -17.57477,-17.57573zM349.39662,297.07652c-15.12442,0 -27.42896,-12.30454 -27.42896,-27.42896c0,-15.12442 12.30454,-27.428 27.42896,-27.428c15.12442,0 27.428,12.30358 27.428,27.428c0,15.12442 -12.30358,27.42896 -27.428,27.42896zM197.21954,242.22436h-24.04377v34.76754h24.04377c3.62994,0 7.09479,-1.10088 10.0212,-3.18267c4.61084,-3.25562 7.36257,-8.56519 7.36257,-14.2011c0,-9.58545 -7.79736,-17.38377 -17.38377,-17.38377zM269.57544,295.33354c-0.01824,-0.02975 -0.05183,-0.05087 -0.08638,-0.04607c-0.60275,0.03071 -1.20838,0.04607 -1.80249,0.04607h-24.13975c-0.05279,0 -0.09598,0.04319 -0.09598,0.09598v20.09806c0,0.05279 0.04319,0.09502 0.09598,0.09502h38.40419c0.03359,0 0.06623,-0.01824 0.08254,-0.04895c0.01728,-0.02975 0.01632,-0.06719 -0.00192,-0.09598z" data-paper-data="{&quot;isBaseLogoContainer&quot;:true}"></path></g></g></g></svg>
